<svg version="1.1" id="Layer_1" xmlns="http://www.w3.org/2000/svg" xmlns:xlink="http://www.w3.org/1999/xlink" x="0px" y="0px"
	 width="100%" viewBox="0 0 500 500" enable-background="new 0 0 500 500" xml:space="preserve">
<path fill="#000000" opacity="1.000000" stroke="none" 
	d="
M276.000000,501.000000 
	C184.000015,501.000000 92.500046,501.000000 1.000049,501.000000 
	C1.000033,334.333405 1.000033,167.666794 1.000016,1.000139 
	C167.666565,1.000092 334.333130,1.000092 500.999756,1.000046 
	C500.999847,167.666519 500.999847,334.333038 500.999939,500.999786 
	C426.166656,501.000000 351.333344,501.000000 276.000000,501.000000 
M132.579132,357.044067 
	C132.768173,357.066742 132.957214,357.089386 133.413528,356.923615 
	C133.237930,356.900238 133.062332,356.876862 132.579132,357.044067 
M170.889694,89.452141 
	C170.698624,89.180885 170.445602,88.993065 170.031998,88.218002 
	C168.973770,86.934471 167.915527,85.650940 166.857285,84.367409 
	C166.420776,84.824806 165.984268,85.282211 165.547760,85.739609 
	C166.999283,86.865807 168.450790,87.992012 170.128098,89.537979 
	C170.326401,89.801079 170.581940,89.984444 171.067795,90.365952 
	C171.183075,90.397766 171.298355,90.429573 171.413635,90.461380 
	C171.309784,90.267601 171.205917,90.073814 170.889694,89.452141 
M338.018982,359.982513 
	C338.018982,359.982513 337.919800,359.971893 337.922699,360.650391 
	C337.970154,361.097473 338.017639,361.544586 337.416626,361.986877 
	C336.985138,362.007660 336.553650,362.028442 335.300049,361.932922 
	C327.827820,359.758331 325.169464,360.571747 320.718048,366.394745 
	C325.303589,371.334351 329.103882,365.814331 333.365753,365.102264 
	C332.174408,370.678253 333.771423,372.008759 341.881561,372.306580 
	C341.338348,369.864746 340.814789,367.511292 340.661957,365.113770 
	C340.661957,365.113770 340.980194,364.918549 341.679779,365.059937 
	C343.180115,366.271545 344.823761,367.345490 346.148865,368.725372 
	C348.429779,371.100586 350.289276,373.935211 352.793671,376.012848 
	C353.726746,376.786896 356.275299,376.469269 357.508301,375.709686 
	C358.264679,375.243713 358.613373,372.433441 357.964813,371.636749 
	C352.984497,365.518890 347.732178,359.621277 342.525635,353.689240 
	C340.627075,351.526123 338.544434,350.873718 336.226837,353.208618 
	C333.917023,355.535614 335.125580,357.325958 337.031616,359.623016 
	C337.359314,359.776062 337.687042,359.929108 338.018982,359.982513 
M143.688614,373.152130 
	C143.884415,372.866486 144.080215,372.580872 144.276016,372.295227 
	C143.790405,372.480377 143.304810,372.665527 142.523117,373.072693 
	C142.732315,373.105347 142.941513,373.138000 143.688614,373.152130 
M85.945435,292.960266 
	C85.945435,292.960266 85.926735,293.091248 86.695450,292.993408 
	C87.504456,293.704437 88.313461,294.415497 89.977730,295.878204 
	C89.529808,293.562531 89.280968,292.276062 89.669472,290.678528 
	C90.475273,289.083435 91.281075,287.488373 92.607376,284.862946 
	C88.941063,284.862946 86.110275,284.034058 84.288010,285.037201 
	C80.604851,287.064758 83.488007,290.233521 83.711960,293.203735 
	C83.622917,293.304260 83.533875,293.404816 83.444839,293.505341 
	C83.559425,293.605682 83.661118,293.728638 83.790749,293.802643 
	C84.442253,294.174622 85.101059,294.533783 85.931908,294.994232 
	C85.988861,294.200775 86.033295,293.581696 85.945435,292.960266 
M377.980347,318.681366 
	C378.932220,318.766022 379.884125,318.850677 381.715698,318.967407 
	C389.933258,319.015381 394.055450,316.170135 395.625793,308.068970 
	C391.615295,309.895874 388.433380,311.345337 385.251465,312.794830 
	C385.020477,312.523132 384.789490,312.251404 384.558502,311.979706 
	C385.997070,309.359161 387.435638,306.738647 388.961578,304.590393 
	C389.120758,304.845978 389.279968,305.101562 389.439178,305.357147 
	C389.326416,304.880951 389.213654,304.404724 388.908966,303.246246 
	C387.104797,302.336151 385.300598,301.426056 384.412109,300.977844 
	C382.417542,305.406281 380.707184,309.203705 378.469696,312.932922 
	C378.308014,312.636230 378.146332,312.339539 378.002991,311.185242 
	C378.543091,308.490265 379.083191,305.795319 379.623260,303.100342 
	C379.990784,303.112213 380.358276,303.124054 380.725769,303.135925 
	C379.715210,301.570557 378.704681,300.005219 377.714752,298.471802 
	C373.704773,300.509674 372.649048,303.261749 375.227386,307.193451 
	C374.595398,307.090271 373.963440,306.987091 373.331451,306.883881 
	C373.070526,308.918579 372.809570,310.953247 372.805725,313.649567 
	C372.621521,314.331116 372.172089,315.553925 372.292908,315.613129 
	C374.150543,316.523499 376.082428,317.282440 377.999481,318.007202 
	C377.999481,318.007202 377.930206,318.011200 377.980347,318.681366 
M86.071465,333.350769 
	C85.893326,333.090973 85.715187,332.831207 85.537048,332.571411 
	C85.641685,333.086395 85.746323,333.601349 86.022408,334.796143 
	C89.273651,338.037537 93.328613,336.930634 96.702965,335.825073 
	C98.364777,335.280609 99.106148,331.926727 100.264030,329.844147 
	C99.670998,329.571136 99.077957,329.298126 98.484924,329.025146 
	C97.659554,330.898651 96.834175,332.772156 95.924149,334.837830 
	C92.727188,334.509766 89.454308,334.173889 86.071465,333.350769 
M100.240089,134.040771 
	C98.256592,137.276688 96.273094,140.512619 94.558182,143.310364 
	C95.683182,145.102432 97.943535,147.540741 97.509682,148.196472 
	C94.134422,153.297836 97.675316,154.279251 101.362633,155.580353 
	C101.592285,155.018158 101.936081,154.579773 101.920387,154.154678 
	C101.673149,147.460632 101.379654,140.768295 101.366699,133.912308 
	C101.217339,133.907135 101.067986,133.901962 100.240089,134.040771 
M157.383804,95.785225 
	C156.433136,97.448433 155.482468,99.111649 154.531784,100.774864 
	C156.237183,100.334869 157.946747,99.910233 159.646790,99.450417 
	C161.246078,99.017853 162.835327,98.548195 164.429001,98.094856 
	C164.730957,98.537277 165.032898,98.979698 165.334854,99.422127 
	C164.253693,100.629898 163.172531,101.837662 161.632858,103.119926 
	C161.532776,103.237167 161.325684,103.422234 161.350006,103.460617 
	C161.506805,103.708038 161.714188,103.923401 162.041718,104.791702 
	C162.325455,105.832832 162.609192,106.873962 162.607239,108.083275 
	C162.767181,108.091850 162.927139,108.100433 163.709229,108.014473 
	C164.468811,107.675705 165.228394,107.336929 166.553223,106.754768 
	C167.382523,105.492027 168.211838,104.229286 169.021103,102.214287 
	C168.697342,99.828011 168.373596,97.441734 168.357880,94.833366 
	C168.247589,94.541916 168.137314,94.250465 167.959976,93.272118 
	C166.591019,91.702019 165.222046,90.131912 163.767761,88.463959 
	C160.715118,93.133041 159.237656,93.012177 155.853683,88.261230 
	C148.270432,89.905075 148.064285,90.283691 150.372849,99.740067 
	C151.537857,98.197670 152.459488,97.232246 153.083252,96.102371 
	C154.740616,93.100189 156.913834,92.142899 159.228638,93.984932 
	C158.275497,94.075150 157.322372,94.165359 155.933075,94.296860 
	C156.945160,94.904472 157.457977,95.212341 157.383804,95.785225 
M92.403893,305.629425 
	C89.528145,303.187073 86.652397,300.744751 83.100716,297.728363 
	C82.421227,298.076691 80.854050,298.880096 78.856277,299.904236 
	C84.695602,303.419769 84.915520,306.097626 80.525826,309.837830 
	C79.873314,310.393799 79.017769,311.832947 79.229675,312.104858 
	C80.957344,314.321899 82.916565,316.358429 84.805328,318.449890 
	C86.207382,316.676575 87.609436,314.903290 89.214745,312.601196 
	C89.378372,312.506927 89.542007,312.412628 89.943741,312.982635 
	C90.985497,312.932190 92.665344,313.250824 92.948326,312.761536 
	C93.769127,311.342438 94.029213,309.598999 94.884285,306.720612 
	C95.887390,309.282806 96.357407,310.757507 97.036690,312.128601 
	C97.547462,313.159607 98.326790,314.057556 99.507866,315.409363 
	C100.369217,316.778046 101.230568,318.146698 102.190826,319.672546 
	C103.149406,319.110474 104.070976,318.864929 104.481613,318.267944 
	C105.336182,317.025574 105.920212,315.597076 106.615417,314.245117 
	C105.069603,313.971008 103.531479,313.624786 101.974144,313.458801 
	C101.363022,313.393646 100.708878,313.732086 100.050156,313.136261 
	C100.563614,310.859772 102.059769,308.237061 101.402939,306.372925 
	C99.564659,301.155609 96.836571,296.251831 94.001312,290.255035 
	C92.928291,291.961731 91.672012,293.037140 91.727943,294.039276 
	C91.916176,297.412109 92.571404,300.758850 92.986626,304.750275 
	C92.961510,305.174225 92.936386,305.598175 92.403893,305.629425 
M97.411331,167.929504 
	C96.953583,167.660858 96.495842,167.392212 96.032173,166.334900 
	C96.521889,164.417969 96.557724,162.197937 97.594086,160.646072 
	C99.878525,157.225311 97.163086,157.308960 95.112083,156.329468 
	C92.404427,163.410080 90.098465,158.616135 87.031723,155.096893 
	C85.605316,157.041031 84.496819,158.715485 83.224594,160.254608 
	C79.664909,164.561005 80.184204,173.069046 84.284203,176.597641 
	C87.183296,179.092697 94.080048,179.849884 97.372803,178.034653 
	C100.525620,176.296524 105.677910,167.343857 104.768631,164.523712 
	C104.428108,163.467590 102.775497,162.234940 101.675217,162.189301 
	C100.538200,162.142136 98.939682,163.186157 98.293861,164.221283 
	C97.677414,165.209335 98.027939,166.800690 97.411331,167.929504 
M126.170662,115.308380 
	C124.695587,112.500404 118.359833,110.223175 125.074471,106.911209 
	C123.667015,105.432632 122.405945,104.107841 121.054977,102.688606 
	C119.109741,103.940399 116.684174,104.973190 115.050194,106.738625 
	C113.962814,107.913498 113.041000,110.786201 113.708908,111.774139 
	C116.627983,116.091934 120.155037,119.998711 123.436211,124.023720 
	C125.813431,122.443558 127.638779,121.230225 129.577713,119.941399 
	C128.522812,118.540306 127.535233,117.228622 126.170662,115.308380 
M137.093048,118.382187 
	C135.781296,119.396309 134.469528,120.410423 133.191727,121.398285 
	C137.299133,127.512665 132.792221,127.826103 129.048523,129.453781 
	C130.307571,130.430923 132.102768,131.223587 132.751343,130.670868 
	C137.322495,126.775139 141.657806,122.602715 146.530258,118.091003 
	C142.800491,116.368744 140.194565,114.710075 137.093048,118.382187 
M126.263893,368.317596 
	C126.037216,367.458740 125.810539,366.599915 125.553757,365.626953 
	C122.916756,368.401154 120.206490,370.655182 118.373573,373.478729 
	C117.654419,374.586578 118.525352,377.199402 119.424080,378.665985 
	C119.816391,379.306183 122.721336,379.394928 123.410194,378.687439 
	C125.884567,376.146057 127.900070,373.157959 130.024551,370.421692 
	C128.951004,369.944702 127.781898,369.425293 126.263893,368.317596 
M90.386261,142.260269 
	C89.412399,140.883072 88.438545,139.505875 87.464684,138.128677 
	C86.317261,139.093597 84.048439,140.640884 84.199387,140.931534 
	C85.432777,143.306595 87.117638,145.447174 88.665260,147.659042 
	C89.062454,147.395935 89.459656,147.132828 89.856857,146.869720 
	C89.955391,145.569260 90.053925,144.268799 90.386261,142.260269 
M110.795273,151.353790 
	C108.580956,153.465561 106.366638,155.577316 103.796127,158.028778 
	C105.048920,158.564133 106.967453,159.383972 108.870895,160.197342 
	C110.578979,157.355789 112.062393,154.923523 113.424309,152.425034 
	C113.459702,152.360107 112.167580,151.571564 110.795273,151.353790 
M359.550232,348.188568 
	C358.668304,349.430145 357.786377,350.671722 357.321960,351.325562 
	C358.492828,351.486023 360.080536,351.703583 362.150238,351.987183 
	C361.938721,350.249084 361.712830,348.392792 361.536102,346.940521 
	C361.293274,347.064209 360.635101,347.399506 359.550232,348.188568 
M142.020706,108.176125 
	C143.296021,107.583321 144.571335,106.990524 146.196350,106.235176 
	C142.946442,100.380203 140.164215,106.778023 136.985550,105.103851 
	C139.718292,109.866188 139.718292,109.866188 142.020706,108.176125 
M145.755051,367.101746 
	C145.159744,368.004578 144.564423,368.907440 143.969116,369.810272 
	C144.492752,370.141357 145.016388,370.472412 145.540024,370.803497 
	C146.875839,368.603882 148.661987,366.528839 149.321960,364.142303 
	C149.579590,363.210693 147.304688,361.578674 146.183289,360.265686 
	C145.862915,360.509674 145.542542,360.753662 145.222153,360.997681 
	C145.582581,362.898163 145.942993,364.798615 145.755051,367.101746 
M302.731293,101.393013 
	C301.082245,104.124733 302.530792,104.521950 304.994263,105.114319 
	C308.489746,105.954857 309.292267,104.479477 309.576538,101.781013 
	C307.273010,101.555832 305.361176,101.368950 302.731293,101.393013 
M319.337646,93.472717 
	C322.401520,95.327499 322.556152,95.177910 323.456635,89.176888 
	C321.612457,88.504921 319.703705,87.809418 317.957214,87.173042 
	C318.578827,89.331757 319.076935,91.061531 319.337646,93.472717 
M134.995804,382.256653 
	C132.960220,383.354767 130.924637,384.452850 128.483307,385.769836 
	C133.601685,388.808716 134.950607,386.404968 134.995804,382.256653 
M352.939484,347.744385 
	C352.939484,348.376251 352.939484,349.008087 352.939484,350.546509 
	C354.467712,348.141388 355.418732,346.644684 356.369751,345.147980 
	C356.214081,344.978638 356.058441,344.809296 355.902771,344.639954 
	C354.712402,345.468536 353.522034,346.297089 352.896515,346.732483 
	C352.570984,346.435883 352.930298,346.763245 352.939484,347.744385 
M138.348068,354.865173 
	C138.780792,356.126953 139.213501,357.388733 139.646225,358.650513 
	C140.119797,358.440735 140.593369,358.230957 141.066940,358.021179 
	C140.303879,356.815491 139.540817,355.609833 138.348068,354.865173 
M216.105026,84.396118 
	C216.836609,85.598740 217.568207,86.801353 218.299789,88.003975 
	C218.757217,87.612961 219.214630,87.221954 219.672058,86.830948 
	C218.714539,85.891068 217.757004,84.951187 216.105026,84.396118 
M226.397888,397.472992 
	C225.089874,397.124084 223.781860,396.775177 222.473846,396.426239 
	C222.421524,396.984924 222.369202,397.543579 222.316864,398.102234 
	C223.631607,398.102234 224.946365,398.102234 226.397888,397.472992 
M140.746597,367.944305 
	C140.634689,367.077423 140.522781,366.210541 140.410873,365.343689 
	C139.934143,365.465912 139.457428,365.588135 138.980698,365.710388 
	C139.418869,366.614136 139.857025,367.517914 140.746597,367.944305 
M158.860321,109.122894 
	C157.563797,109.122894 156.267273,109.122894 154.970749,109.122894 
	C154.989456,109.487854 155.008163,109.852814 155.026855,110.217773 
	C156.497620,109.968552 157.968384,109.719322 158.860321,109.122894 
M110.372513,148.675766 
	C110.766808,148.084259 111.161095,147.492752 111.555389,146.901245 
	C111.168144,146.761703 110.780899,146.622162 110.393661,146.482620 
	C110.185173,147.200623 109.976685,147.918610 110.372513,148.675766 
M110.444794,139.861465 
	C109.869598,139.426178 109.294395,138.990875 108.719200,138.555588 
	C108.554199,138.992249 108.389206,139.428894 108.224205,139.865540 
	C109.049950,140.039261 109.875687,140.212982 110.444794,139.861465 
M179.352646,90.557518 
	C180.005402,90.911377 180.658142,91.265228 181.310898,91.619080 
	C181.441238,91.279228 181.571564,90.939384 181.701904,90.599541 
	C180.903564,90.399162 180.105240,90.198784 179.352646,90.557518 
M88.138107,328.005280 
	C88.338776,328.511444 88.527832,329.023468 88.772148,329.507599 
	C88.785309,329.533630 89.262955,329.325226 89.524376,329.225952 
	C89.182991,328.674164 88.841606,328.122375 88.138107,328.005280 
M87.675781,321.453369 
	C87.584335,322.007355 87.492889,322.561310 87.401436,323.115295 
	C87.675964,323.082977 88.181427,323.077209 88.188660,323.014221 
	C88.248833,322.489960 88.217163,321.955170 87.675781,321.453369 
M179.400284,97.920166 
	C180.023911,98.414261 180.647537,98.908356 181.271179,99.402451 
	C181.446747,99.158562 181.622314,98.914665 181.797882,98.670776 
	C181.123901,98.318611 180.449905,97.966438 179.400284,97.920166 
M158.320312,105.034508 
	C158.565186,104.790192 158.810074,104.545876 159.054947,104.301559 
	C158.368912,104.307014 157.682892,104.312477 156.996857,104.317940 
	C157.248840,104.557373 157.500839,104.796806 158.320312,105.034508 
M94.245293,325.618378 
	C93.675316,325.322113 93.105339,325.025879 92.535362,324.729614 
	C92.452034,324.986389 92.368706,325.243164 92.285378,325.499939 
	C92.799828,325.638916 93.314278,325.777893 94.245293,325.618378 
M139.567520,98.789223 
	C139.183228,98.779877 138.798950,98.770538 138.414673,98.761192 
	C138.417252,98.920341 138.406464,99.216698 138.424393,99.218445 
	C138.804337,99.255501 139.187485,99.259399 139.567520,98.789223 
M177.271896,94.459778 
	C176.997818,94.719643 176.723724,94.979500 176.449646,95.239365 
	C176.557678,95.353111 176.665726,95.466858 176.773773,95.580597 
	C177.048141,95.319809 177.322525,95.059013 177.271896,94.459778 
M139.496948,379.598114 
	C138.948837,379.627167 138.400742,379.656219 137.852631,379.685303 
	C137.923279,380.052917 137.993912,380.420532 138.064545,380.788147 
	C138.483154,380.566864 138.901764,380.345581 139.496948,379.598114 
M177.381042,87.455467 
	C177.353271,86.927322 177.325516,86.399170 177.297760,85.871025 
	C176.942902,85.939209 176.588058,86.007385 176.233200,86.075569 
	C176.446381,86.479988 176.659576,86.884415 177.381042,87.455467 
M312.662079,83.790642 
	C312.267670,83.788582 311.873016,83.782654 311.480011,83.805122 
	C311.469360,83.805725 311.465515,84.255821 311.476501,84.256645 
	C311.869537,84.286087 312.264740,84.286919 312.662079,83.790642 
M226.282547,390.533417 
	C225.871140,390.402374 225.464508,390.248962 225.044342,390.158844 
	C224.958420,390.140442 224.821579,390.359558 224.708221,390.469208 
	C225.119537,390.600067 225.530838,390.730896 226.282547,390.533417 
M229.422272,396.574768 
	C229.054520,396.595673 228.686768,396.616577 228.319016,396.637482 
	C228.396133,396.901642 228.473267,397.165802 228.550385,397.429962 
	C228.803879,397.291260 229.057373,397.152527 229.422272,396.574768 
M137.350830,361.652588 
	C137.303040,361.325104 137.255234,360.997620 137.207443,360.670135 
	C137.115372,361.017303 137.023285,361.364441 137.350830,361.652588 
M132.648285,367.367889 
	C132.527756,367.129517 132.407227,366.891144 132.286697,366.652771 
	C132.070145,366.864777 131.853592,367.076782 131.637024,367.288788 
	C131.871979,367.415527 132.106934,367.542267 132.648285,367.367889 
M117.000015,138.727478 
	C116.840675,138.985992 116.681335,139.244507 116.521980,139.503006 
	C116.779594,139.341278 117.037201,139.179565 117.000015,138.727478 
M204.137299,78.623596 
	C204.753799,78.514091 205.374527,78.420341 205.977280,78.259377 
	C206.017212,78.248703 205.920502,77.726372 205.887344,77.442024 
	C205.427231,77.625923 204.967133,77.809822 204.137299,78.623596 
M170.029633,80.819733 
	C170.424484,80.726006 170.819321,80.632278 171.214172,80.538544 
	C171.128693,80.419205 171.027603,80.189194 170.960266,80.198685 
	C170.558777,80.255264 170.165085,80.367126 170.029633,80.819733 
M186.919830,89.490013 
	C186.775238,89.255234 186.630646,89.020454 186.486038,88.785683 
	C186.351974,89.028366 186.217911,89.271049 186.083847,89.513733 
	C186.337646,89.651649 186.591446,89.789566 186.919830,89.490013 
M104.778694,326.789215 
	C105.011574,326.695374 105.244453,326.601532 105.477341,326.507690 
	C105.401466,326.392151 105.300804,326.168457 105.253883,326.179230 
	C105.010330,326.235046 104.780495,326.350739 104.778694,326.789215 
M142.565063,363.475647 
	C142.778824,363.528748 142.992599,363.581879 143.206360,363.635010 
	C143.068466,363.499756 142.930557,363.364471 142.565063,363.475647 
M174.476486,93.353081 
	C174.529343,93.151161 174.582214,92.949234 174.635071,92.747307 
	C174.504669,92.877296 174.374268,93.007278 174.476486,93.353081 
M147.218292,103.784920 
	C147.354996,103.966835 147.491684,104.148750 147.628403,104.330666 
	C147.597351,104.075157 147.566299,103.819649 147.218292,103.784920 
M134.524338,103.659454 
	C134.472961,103.853943 134.421570,104.048439 134.370178,104.242928 
	C134.495300,104.118019 134.620438,103.993103 134.524338,103.659454 
M310.799896,98.207932 
	C310.863922,98.399391 310.927948,98.590851 310.992004,98.782318 
	C311.053009,98.589851 311.114014,98.397377 310.799896,98.207932 
M146.753311,109.172676 
	C146.631638,109.006630 146.509964,108.840576 146.388290,108.674530 
	C146.413315,108.904541 146.438324,109.134552 146.753311,109.172676 
M135.525696,372.624420 
	C135.470474,372.838989 135.415253,373.053589 135.360031,373.268158 
	C135.496155,373.130035 135.632294,372.991913 135.525696,372.624420 
M125.788490,126.210350 
	C125.653664,126.033890 125.518837,125.857430 125.384010,125.680969 
	C125.414902,125.926537 125.445793,126.172104 125.788490,126.210350 
M107.425049,324.543091 
	C107.177376,324.481476 106.929710,324.419830 106.682045,324.358215 
	C106.841942,324.515198 107.001846,324.672150 107.425049,324.543091 
M166.236572,82.117371 
	C166.409546,82.060577 166.582504,82.003784 166.755478,81.946991 
	C166.582703,81.891663 166.409912,81.836334 166.236572,82.117371 
M78.311325,293.535706 
	C78.125504,293.495178 77.939682,293.454651 77.753868,293.414093 
	C77.884048,293.391571 78.014229,293.369049 78.311325,293.535706 
M91.275093,147.823944 
	C91.386543,147.975296 91.498001,148.126648 91.609451,148.278000 
	C91.586884,148.069412 91.564316,147.860825 91.275093,147.823944 
M182.370560,75.479477 
	C182.370560,75.479477 182.557434,75.583939 182.557434,75.583939 
	C182.557434,75.583939 182.529068,75.373436 182.370560,75.479477 
M172.520187,82.369362 
	C172.520187,82.369362 172.420609,82.546753 172.420609,82.546753 
	C172.420609,82.546753 172.619858,82.520309 172.520187,82.369362 
M304.372314,96.498611 
	C304.372314,96.498611 304.549591,96.605652 304.549591,96.605652 
	C304.549591,96.605652 304.527710,96.391212 304.372314,96.498611 
M127.400414,98.482056 
	C127.400414,98.482056 127.523880,98.405624 127.400414,98.482056 
M135.599991,354.518585 
	C135.599991,354.518585 135.476761,354.595154 135.599991,354.518585 
M359.474457,342.493652 
	C359.474457,342.493652 359.512360,342.496124 359.474457,342.493652 
M146.483856,112.581680 
	C146.483856,112.581680 146.423126,112.477295 146.483856,112.581680 
M87.610367,325.532898 
	C87.610367,325.532898 87.475456,325.625732 87.610367,325.532898 
M104.520782,132.399719 
	C104.520782,132.399719 104.599396,132.524399 104.520782,132.399719 
M107.480270,132.591263 
	C107.480270,132.591263 107.410217,132.476822 107.480270,132.591263 
M103.394661,138.481110 
	C103.394661,138.481110 103.524071,138.399475 103.394661,138.481110 
M92.519463,141.383514 
	C92.519463,141.383514 92.424072,141.547058 92.424072,141.547058 
	C92.424072,141.547058 92.611763,141.525284 92.519463,141.383514 
z"/>
<path fill="#090909" opacity="1.000000" stroke="none" 
	d="
M97.953384,168.126831 
	C98.027939,166.800690 97.677414,165.209335 98.293861,164.221283 
	C98.939682,163.186157 100.538200,162.142136 101.675217,162.189301 
	C102.775497,162.234940 104.428108,163.467590 104.768631,164.523712 
	C105.677910,167.343857 100.525620,176.296524 97.372803,178.034653 
	C94.080048,179.849884 87.183296,179.092697 84.284203,176.597641 
	C80.184204,173.069046 79.664909,164.561005 83.224594,160.254608 
	C84.496819,158.715485 85.605316,157.041031 87.031723,155.096893 
	C90.098465,158.616135 92.404427,163.410080 95.112083,156.329468 
	C97.163086,157.308960 99.878525,157.225311 97.594086,160.646072 
	C96.557724,162.197937 96.521889,164.417969 95.979614,166.962112 
	C95.743538,167.890701 95.475357,168.040512 95.002663,168.075531 
	C94.551834,168.191040 94.292641,168.366669 94.512947,168.787964 
	C95.387177,169.562027 95.853706,170.187286 96.320236,170.812546 
	C96.864624,169.917297 97.409004,169.022064 97.953384,168.126831 
M87.796028,174.760788 
	C88.455429,174.114426 89.114838,173.468063 89.774231,172.821701 
	C86.949913,170.191574 89.457207,168.139069 90.482513,165.890656 
	C90.972359,164.816437 91.246223,163.643753 91.696373,162.277557 
	C90.617035,162.277557 90.076370,162.129868 89.667397,162.299561 
	C82.901154,165.106995 87.422218,170.265427 87.796028,174.760788 
z"/>
<path fill="#0C0C0C" opacity="1.000000" stroke="none" 
	d="
M89.011497,313.130005 
	C87.609436,314.903290 86.207382,316.676575 84.805336,318.449890 
	C82.916565,316.358429 80.957344,314.321899 79.229675,312.104858 
	C79.017769,311.832947 79.873314,310.393799 80.525826,309.837830 
	C84.915520,306.097626 84.695602,303.419769 78.856277,299.904236 
	C80.854050,298.880096 82.421227,298.076691 83.100716,297.728363 
	C86.652397,300.744751 89.528145,303.187073 93.035156,305.877380 
	C94.432838,305.586029 95.199249,305.046753 97.150810,303.673523 
	C94.793884,303.927460 93.920937,304.021515 93.047974,304.115570 
	C92.571404,300.758850 91.916176,297.412109 91.727943,294.039276 
	C91.672012,293.037140 92.928291,291.961731 94.001312,290.255035 
	C96.836571,296.251831 99.564659,301.155609 101.402939,306.372925 
	C102.059769,308.237061 100.563614,310.859772 99.831573,313.650024 
	C99.404190,314.447418 99.195381,314.731079 98.986565,315.014740 
	C98.326790,314.057556 97.547462,313.159607 97.036690,312.128601 
	C96.357407,310.757507 95.887390,309.282806 94.884285,306.720612 
	C94.029213,309.598999 93.769127,311.342438 92.948326,312.761536 
	C92.665344,313.250824 90.985497,312.932190 89.953941,312.389221 
	C89.496246,311.028229 89.028351,310.260651 88.516586,309.421082 
	C87.596199,310.625671 86.884148,311.557617 85.844452,312.918365 
	C87.246902,313.012085 88.129204,313.071014 89.011497,313.130005 
z"/>
<path fill="#0D0D0D" opacity="1.000000" stroke="none" 
	d="
M337.020782,359.050903 
	C335.125580,357.325958 333.917023,355.535614 336.226837,353.208618 
	C338.544434,350.873718 340.627075,351.526123 342.525635,353.689240 
	C347.732178,359.621277 352.984497,365.518890 357.964813,371.636749 
	C358.613373,372.433441 358.264679,375.243713 357.508301,375.709686 
	C356.275299,376.469269 353.726746,376.786896 352.793671,376.012848 
	C350.289276,373.935211 348.429779,371.100586 346.148865,368.725372 
	C344.823761,367.345490 343.180115,366.271545 341.230469,364.678955 
	C340.668671,364.112579 340.556244,363.927216 340.525940,363.466370 
	C340.048889,362.784882 339.489685,362.378845 339.067596,361.559448 
	C338.776398,360.754700 338.348083,360.363312 337.919800,359.971893 
	C337.919800,359.971893 338.018982,359.982513 338.176697,359.709473 
	C337.896515,359.307922 337.458649,359.179413 337.020782,359.050903 
z"/>
<path fill="#0A0A0A" opacity="1.000000" stroke="none" 
	d="
M159.992905,94.020737 
	C156.913834,92.142899 154.740616,93.100189 153.083252,96.102371 
	C152.459488,97.232246 151.537857,98.197670 150.372849,99.740067 
	C148.064285,90.283691 148.270432,89.905075 155.853683,88.261230 
	C159.237656,93.012177 160.715118,93.133041 163.767761,88.463959 
	C165.222046,90.131912 166.591019,91.702019 167.990204,93.890076 
	C168.030228,94.690498 168.040024,94.872978 168.049835,95.055458 
	C168.373596,97.441734 168.697342,99.828011 168.732422,102.741669 
	C167.625137,104.512085 166.806564,105.755119 165.987976,106.998154 
	C165.228394,107.336929 164.468811,107.675705 163.352097,108.010780 
	C162.994965,108.007088 162.892929,107.915100 162.892929,107.915100 
	C162.609192,106.873962 162.325455,105.832832 162.029938,104.195488 
	C162.042557,103.414665 162.066971,103.230049 162.091385,103.045441 
	C163.172531,101.837662 164.253693,100.629898 165.334854,99.422127 
	C165.032898,98.979698 164.730957,98.537277 164.429001,98.094856 
	C162.835327,98.548195 161.246078,99.017853 159.646790,99.450417 
	C157.946747,99.910233 156.237183,100.334869 154.531799,100.774864 
	C155.482468,99.111649 156.433136,97.448433 158.041061,95.799713 
	C159.129837,95.216377 159.561371,94.618561 159.992905,94.020737 
z"/>
<path fill="#090909" opacity="1.000000" stroke="none" 
	d="
M126.359161,115.612663 
	C127.535233,117.228622 128.522812,118.540306 129.577713,119.941399 
	C127.638779,121.230225 125.813431,122.443558 123.436211,124.023720 
	C120.155037,119.998711 116.627983,116.091934 113.708908,111.774139 
	C113.041000,110.786201 113.962814,107.913498 115.050194,106.738625 
	C116.684174,104.973190 119.109741,103.940399 121.054977,102.688606 
	C122.405945,104.107841 123.667015,105.432632 125.074471,106.911209 
	C118.359833,110.223175 124.695587,112.500404 126.359161,115.612663 
z"/>
<path fill="#090909" opacity="1.000000" stroke="none" 
	d="
M388.874207,304.118103 
	C387.435638,306.738647 385.997070,309.359161 384.558502,311.979706 
	C384.789490,312.251404 385.020477,312.523132 385.251465,312.794830 
	C388.433380,311.345337 391.615295,309.895874 395.625793,308.068970 
	C394.055450,316.170135 389.933258,319.015381 381.148865,318.573242 
	C379.698090,318.123108 378.814148,318.067139 377.930206,318.011169 
	C377.930206,318.011200 377.999481,318.007202 378.333221,317.793030 
	C378.776917,316.052948 378.886871,314.527008 378.996826,313.001099 
	C380.707184,309.203705 382.417542,305.406281 384.412109,300.977844 
	C385.300598,301.426056 387.104797,302.336151 388.946960,303.633240 
	C388.984985,304.020233 388.874207,304.118103 388.874207,304.118103 
z"/>
<path fill="#0D0D0D" opacity="1.000000" stroke="none" 
	d="
M340.291229,365.157806 
	C340.814789,367.511292 341.338348,369.864746 341.881561,372.306580 
	C333.771423,372.008759 332.174408,370.678253 333.365753,365.102264 
	C329.103882,365.814331 325.303589,371.334351 320.718048,366.394745 
	C325.169464,360.571747 327.827820,359.758331 335.710022,362.304688 
	C336.769379,363.123962 337.418793,363.571442 338.371918,364.004669 
	C339.078979,364.012390 339.482330,364.034363 339.967834,364.338806 
	C340.130371,364.800049 340.210785,364.978912 340.291229,365.157806 
z"/>
<path fill="#0A0A0A" opacity="1.000000" stroke="none" 
	d="
M101.096786,134.075577 
	C101.379654,140.768295 101.673149,147.460632 101.920387,154.154678 
	C101.936081,154.579773 101.592285,155.018158 101.362633,155.580353 
	C97.675316,154.279251 94.134422,153.297836 97.509682,148.196472 
	C97.943535,147.540741 95.683182,145.102432 94.558182,143.310364 
	C96.273094,140.512619 98.256592,137.276688 100.621429,134.015930 
	C101.002777,133.991089 101.096786,134.075577 101.096786,134.075577 
z"/>
<path fill="#090909" opacity="1.000000" stroke="none" 
	d="
M137.350296,118.121185 
	C140.194565,114.710075 142.800491,116.368744 146.530258,118.091003 
	C141.657806,122.602715 137.322495,126.775139 132.751343,130.670868 
	C132.102768,131.223587 130.307571,130.430923 129.048523,129.453781 
	C132.792221,127.826103 137.299133,127.512665 133.191727,121.398285 
	C134.469528,120.410423 135.781296,119.396309 137.350296,118.121185 
z"/>
<path fill="#0B0B0B" opacity="1.000000" stroke="none" 
	d="
M126.438339,368.611725 
	C127.781898,369.425293 128.951004,369.944702 130.024551,370.421692 
	C127.900070,373.157959 125.884567,376.146057 123.410194,378.687439 
	C122.721336,379.394928 119.816391,379.306183 119.424080,378.665985 
	C118.525352,377.199402 117.654419,374.586578 118.373573,373.478729 
	C120.206490,370.655182 122.916756,368.401154 125.553757,365.626953 
	C125.810539,366.599915 126.037216,367.458740 126.438339,368.611725 
z"/>
<path fill="#090909" opacity="1.000000" stroke="none" 
	d="
M372.548645,312.987915 
	C372.809570,310.953247 373.070526,308.918579 373.331451,306.883881 
	C373.963440,306.987091 374.595398,307.090271 375.227386,307.193451 
	C372.649048,303.261749 373.704773,300.509674 377.714752,298.471802 
	C378.704681,300.005219 379.715210,301.570557 380.725769,303.135925 
	C380.358276,303.124054 379.990784,303.112213 379.623260,303.100342 
	C379.083191,305.795319 378.543091,308.490265 377.600952,311.530640 
	C375.648834,312.246674 374.098724,312.617279 372.548645,312.987915 
z"/>
<path fill="#0C0C0C" opacity="1.000000" stroke="none" 
	d="
M83.995178,292.939758 
	C83.488007,290.233521 80.604851,287.064758 84.288010,285.037201 
	C86.110275,284.034058 88.941063,284.862946 92.607376,284.862946 
	C91.281075,287.488373 90.475273,289.083435 89.010361,290.861877 
	C87.543083,291.727203 86.734909,292.409241 85.926735,293.091248 
	C85.926735,293.091248 85.945435,292.960266 85.669205,292.868866 
	C84.927040,292.831573 84.461105,292.885681 83.995178,292.939758 
z"/>
<path fill="#0A0A0A" opacity="1.000000" stroke="none" 
	d="
M90.269363,142.614304 
	C90.053925,144.268799 89.955391,145.569260 89.856857,146.869720 
	C89.459656,147.132828 89.062454,147.395935 88.665260,147.659042 
	C87.117638,145.447174 85.432777,143.306595 84.199387,140.931534 
	C84.048439,140.640884 86.317261,139.093597 87.464684,138.128677 
	C88.438545,139.505875 89.412399,140.883072 90.269363,142.614304 
z"/>
<path fill="#0A0A0A" opacity="1.000000" stroke="none" 
	d="
M111.144913,151.237137 
	C112.167580,151.571564 113.459702,152.360107 113.424309,152.425034 
	C112.062393,154.923523 110.578979,157.355789 108.870895,160.197342 
	C106.967453,159.383972 105.048920,158.564133 103.796127,158.028778 
	C106.366638,155.577316 108.580956,153.465561 111.144913,151.237137 
z"/>
<path fill="#121212" opacity="1.000000" stroke="none" 
	d="
M99.247215,315.212036 
	C99.195381,314.731079 99.404190,314.447418 99.843658,314.025238 
	C100.708878,313.732086 101.363022,313.393646 101.974144,313.458801 
	C103.531479,313.624786 105.069603,313.971008 106.615417,314.245117 
	C105.920212,315.597076 105.336182,317.025574 104.481613,318.267944 
	C104.070976,318.864929 103.149406,319.110474 102.190826,319.672546 
	C101.230568,318.146698 100.369217,316.778046 99.247215,315.212036 
z"/>
<path fill="#D4D4D4" opacity="1.000000" stroke="none" 
	d="
M359.763550,347.961670 
	C360.635101,347.399506 361.293274,347.064209 361.536102,346.940521 
	C361.712830,348.392792 361.938721,350.249084 362.150238,351.987183 
	C360.080536,351.703583 358.492828,351.486023 357.321960,351.325562 
	C357.786377,350.671722 358.668304,349.430145 359.763550,347.961670 
z"/>
<path fill="#121212" opacity="1.000000" stroke="none" 
	d="
M86.181419,333.837982 
	C89.454308,334.173889 92.727188,334.509766 95.924149,334.837830 
	C96.834175,332.772156 97.659554,330.898651 98.484924,329.025146 
	C99.077957,329.298126 99.670998,329.571136 100.264030,329.844147 
	C99.106148,331.926727 98.364777,335.280609 96.702965,335.825073 
	C93.328613,336.930634 89.273651,338.037537 86.019974,334.387451 
	C86.017540,333.978790 86.181419,333.837982 86.181419,333.837982 
z"/>
<path fill="#090909" opacity="1.000000" stroke="none" 
	d="
M141.757507,108.361427 
	C139.718292,109.866188 139.718292,109.866188 136.985550,105.103851 
	C140.164215,106.778023 142.946442,100.380203 146.196350,106.235176 
	C144.571335,106.990524 143.296021,107.583321 141.757507,108.361427 
z"/>
<path fill="#101010" opacity="1.000000" stroke="none" 
	d="
M146.029236,366.900421 
	C145.942993,364.798615 145.582581,362.898163 145.222153,360.997681 
	C145.542542,360.753662 145.862915,360.509674 146.183289,360.265686 
	C147.304688,361.578674 149.579590,363.210693 149.321960,364.142303 
	C148.661987,366.528839 146.875839,368.603882 145.540024,370.803497 
	C145.016388,370.472412 144.492752,370.141357 143.969116,369.810272 
	C144.564423,368.907440 145.159744,368.004578 146.029236,366.900421 
z"/>
<path fill="#F2F2F2" opacity="1.000000" stroke="none" 
	d="
M372.677185,313.318726 
	C374.098724,312.617279 375.648834,312.246674 377.591797,311.959442 
	C378.146332,312.339539 378.308014,312.636230 378.733276,312.967010 
	C378.886871,314.527008 378.776917,316.052948 378.332031,317.827698 
	C376.082428,317.282440 374.150543,316.523499 372.292908,315.613129 
	C372.172089,315.553925 372.621521,314.331116 372.677185,313.318726 
z"/>
<path fill="#0D0D0D" opacity="1.000000" stroke="none" 
	d="
M303.090332,101.287537 
	C305.361176,101.368950 307.273010,101.555832 309.576538,101.781013 
	C309.292267,104.479477 308.489746,105.954857 304.994263,105.114319 
	C302.530792,104.521950 301.082245,104.124733 303.090332,101.287537 
z"/>
<path fill="#0D0D0D" opacity="1.000000" stroke="none" 
	d="
M319.456360,93.132011 
	C319.076935,91.061531 318.578827,89.331757 317.957214,87.173042 
	C319.703705,87.809418 321.612457,88.504921 323.456635,89.176888 
	C322.556152,95.177910 322.401520,95.327499 319.456360,93.132011 
z"/>
<path fill="#101010" opacity="1.000000" stroke="none" 
	d="
M135.259613,382.469116 
	C134.950607,386.404968 133.601685,388.808716 128.483307,385.769836 
	C130.924637,384.452850 132.960220,383.354767 135.259613,382.469116 
z"/>
<path fill="#D4D4D4" opacity="1.000000" stroke="none" 
	d="
M353.114563,347.417480 
	C352.930298,346.763245 352.570984,346.435883 352.896515,346.732483 
	C353.522034,346.297089 354.712402,345.468536 355.902771,344.639954 
	C356.058441,344.809296 356.214081,344.978638 356.369751,345.147980 
	C355.418732,346.644684 354.467712,348.141388 352.939484,350.546509 
	C352.939484,349.008087 352.939484,348.376251 353.114563,347.417480 
z"/>
<path fill="#0A0A0A" opacity="1.000000" stroke="none" 
	d="
M169.902298,89.118210 
	C168.450790,87.992012 166.999283,86.865807 165.547760,85.739609 
	C165.984268,85.282211 166.420776,84.824806 166.857285,84.367409 
	C167.915527,85.650940 168.973770,86.934471 170.021332,88.607841 
	C170.010681,88.997681 169.902298,89.118210 169.902298,89.118210 
z"/>
<path fill="#D4D4D4" opacity="1.000000" stroke="none" 
	d="
M89.113129,312.865601 
	C88.129204,313.071014 87.246902,313.012085 85.844452,312.918365 
	C86.884148,311.557617 87.596199,310.625671 88.516586,309.421082 
	C89.028351,310.260651 89.496246,311.028229 89.834885,312.057068 
	C89.542007,312.412628 89.378372,312.506927 89.113129,312.865601 
z"/>
<path fill="#0B0B0B" opacity="1.000000" stroke="none" 
	d="
M138.562897,354.634644 
	C139.540817,355.609833 140.303879,356.815491 141.066940,358.021179 
	C140.593369,358.230957 140.119797,358.440735 139.646225,358.650513 
	C139.213501,357.388733 138.780792,356.126953 138.562897,354.634644 
z"/>
<path fill="#F2F2F2" opacity="1.000000" stroke="none" 
	d="
M216.452255,84.203705 
	C217.757004,84.951187 218.714539,85.891068 219.672058,86.830948 
	C219.214630,87.221954 218.757217,87.612961 218.299789,88.003975 
	C217.568207,86.801353 216.836609,85.598740 216.452255,84.203705 
z"/>
<path fill="#F2F2F2" opacity="1.000000" stroke="none" 
	d="
M86.311096,293.042328 
	C86.734909,292.409241 87.543083,291.727203 88.691689,291.017395 
	C89.280968,292.276062 89.529808,293.562531 89.977730,295.878204 
	C88.313461,294.415497 87.504456,293.704437 86.311096,293.042328 
z"/>
<path fill="#161616" opacity="1.000000" stroke="none" 
	d="
M226.329498,397.787598 
	C224.946365,398.102234 223.631607,398.102234 222.316864,398.102234 
	C222.369202,397.543579 222.421524,396.984924 222.473846,396.426239 
	C223.781860,396.775177 225.089874,397.124084 226.329498,397.787598 
z"/>
<path fill="#101010" opacity="1.000000" stroke="none" 
	d="
M140.520889,368.182983 
	C139.857025,367.517914 139.418869,366.614136 138.980698,365.710388 
	C139.457428,365.588135 139.934143,365.465912 140.410873,365.343689 
	C140.522781,366.210541 140.634689,367.077423 140.520889,368.182983 
z"/>
<path fill="#0C0C0C" opacity="1.000000" stroke="none" 
	d="
M159.149719,109.296494 
	C157.968384,109.719322 156.497620,109.968552 155.026855,110.217773 
	C155.008163,109.852814 154.989456,109.487854 154.970749,109.122894 
	C156.267273,109.122894 157.563797,109.122894 159.149719,109.296494 
z"/>
<path fill="#F2F2F2" opacity="1.000000" stroke="none" 
	d="
M95.122513,168.038788 
	C95.475357,168.040512 95.743538,167.890701 95.982574,167.356445 
	C96.495842,167.392212 96.953583,167.660858 97.682358,168.028168 
	C97.409004,169.022064 96.864624,169.917297 96.320236,170.812546 
	C95.853706,170.187286 95.387177,169.562027 94.660416,169.145782 
	C94.640953,168.916122 94.881729,168.477448 95.122513,168.038788 
z"/>
<path fill="#0C0C0C" opacity="1.000000" stroke="none" 
	d="
M166.270599,106.876465 
	C166.806564,105.755119 167.625137,104.512085 168.742432,103.117798 
	C168.211838,104.229286 167.382523,105.492027 166.270599,106.876465 
z"/>
<path fill="#0A0A0A" opacity="1.000000" stroke="none" 
	d="
M110.070358,148.656189 
	C109.976685,147.918610 110.185173,147.200623 110.393661,146.482605 
	C110.780899,146.622162 111.168144,146.761703 111.555389,146.901245 
	C111.161095,147.492752 110.766808,148.084259 110.070358,148.656189 
z"/>
<path fill="#0A0A0A" opacity="1.000000" stroke="none" 
	d="
M110.573105,140.124084 
	C109.875687,140.212982 109.049950,140.039261 108.224205,139.865540 
	C108.389206,139.428894 108.554199,138.992249 108.719200,138.555588 
	C109.294395,138.990875 109.869598,139.426178 110.573105,140.124084 
z"/>
<path fill="#0A0A0A" opacity="1.000000" stroke="none" 
	d="
M179.329773,90.277969 
	C180.105240,90.198784 180.903564,90.399162 181.701904,90.599541 
	C181.571564,90.939384 181.441238,91.279228 181.310898,91.619080 
	C180.658142,91.265228 180.005402,90.911377 179.329773,90.277969 
z"/>
<path fill="#F2F2F2" opacity="1.000000" stroke="none" 
	d="
M93.017303,304.432922 
	C93.920937,304.021515 94.793884,303.927460 97.150810,303.673523 
	C95.199249,305.046753 94.432838,305.586029 93.288849,306.073730 
	C92.936386,305.598175 92.961510,305.174225 93.017303,304.432922 
z"/>
<path fill="#121212" opacity="1.000000" stroke="none" 
	d="
M88.319168,327.787933 
	C88.841606,328.122375 89.182991,328.674164 89.524368,329.225952 
	C89.262955,329.325226 88.785309,329.533630 88.772148,329.507599 
	C88.527832,329.023468 88.338776,328.511444 88.319168,327.787933 
z"/>
<path fill="#121212" opacity="1.000000" stroke="none" 
	d="
M87.944504,321.438477 
	C88.217163,321.955170 88.248833,322.489960 88.188660,323.014221 
	C88.181427,323.077209 87.675964,323.082977 87.401436,323.115295 
	C87.492889,322.561310 87.584335,322.007355 87.944504,321.438477 
z"/>
<path fill="#0A0A0A" opacity="1.000000" stroke="none" 
	d="
M179.588104,97.767220 
	C180.449905,97.966438 181.123901,98.318611 181.797882,98.670776 
	C181.622314,98.914665 181.446747,99.158562 181.271179,99.402451 
	C180.647537,98.908356 180.023911,98.414261 179.588104,97.767220 
z"/>
<path fill="#D4D4D4" opacity="1.000000" stroke="none" 
	d="
M83.853569,293.071747 
	C84.461105,292.885681 84.927040,292.831573 85.735352,292.870056 
	C86.033295,293.581696 85.988861,294.200775 85.931908,294.994232 
	C85.101059,294.533783 84.442253,294.174622 83.790749,293.802643 
	C83.661118,293.728638 83.559425,293.605682 83.444839,293.505341 
	C83.533875,293.404816 83.622917,293.304260 83.853569,293.071747 
z"/>
<path fill="#121212" opacity="1.000000" stroke="none" 
	d="
M158.036560,105.035370 
	C157.500839,104.796806 157.248840,104.557373 156.996857,104.317940 
	C157.682892,104.312477 158.368912,104.307014 159.054947,104.301559 
	C158.810074,104.545876 158.565186,104.790192 158.036560,105.035370 
z"/>
<path fill="#F2F2F2" opacity="1.000000" stroke="none" 
	d="
M377.955261,318.346252 
	C378.814148,318.067139 379.698090,318.123108 380.709015,318.557190 
	C379.884125,318.850677 378.932220,318.766022 377.955261,318.346252 
z"/>
<path fill="#121212" opacity="1.000000" stroke="none" 
	d="
M94.037010,325.767639 
	C93.314278,325.777893 92.799828,325.638916 92.285378,325.499939 
	C92.368706,325.243164 92.452034,324.986389 92.535362,324.729614 
	C93.105339,325.025879 93.675316,325.322113 94.037010,325.767639 
z"/>
<path fill="#090909" opacity="1.000000" stroke="none" 
	d="
M139.568771,99.029495 
	C139.187485,99.259399 138.804337,99.255501 138.424393,99.218445 
	C138.406464,99.216698 138.417252,98.920341 138.414673,98.761200 
	C138.798950,98.770538 139.183228,98.779877 139.568771,99.029495 
z"/>
<path fill="#0A0A0A" opacity="1.000000" stroke="none" 
	d="
M177.434387,94.628998 
	C177.322525,95.059013 177.048141,95.319809 176.773773,95.580597 
	C176.665726,95.466858 176.557678,95.353111 176.449646,95.239365 
	C176.723724,94.979500 176.997818,94.719643 177.434387,94.628998 
z"/>
<path fill="#F2F2F2" opacity="1.000000" stroke="none" 
	d="
M159.610779,94.002838 
	C159.561371,94.618561 159.129837,95.216377 158.334564,95.667206 
	C157.457977,95.212341 156.945160,94.904472 155.933075,94.296860 
	C157.322372,94.165359 158.275497,94.075150 159.610779,94.002838 
z"/>
<path fill="#101010" opacity="1.000000" stroke="none" 
	d="
M139.408661,379.861206 
	C138.901764,380.345581 138.483154,380.566864 138.064545,380.788147 
	C137.993912,380.420532 137.923279,380.052917 137.852631,379.685303 
	C138.400742,379.656219 138.948837,379.627167 139.408661,379.861206 
z"/>
<path fill="#0A0A0A" opacity="1.000000" stroke="none" 
	d="
M177.126892,87.372147 
	C176.659576,86.884415 176.446381,86.479988 176.233200,86.075569 
	C176.588058,86.007385 176.942902,85.939209 177.297760,85.871025 
	C177.325516,86.399170 177.353271,86.927322 177.126892,87.372147 
z"/>
<path fill="#0D0D0D" opacity="1.000000" stroke="none" 
	d="
M312.660858,84.041191 
	C312.264740,84.286919 311.869537,84.286087 311.476501,84.256645 
	C311.465515,84.255821 311.469360,83.805725 311.480011,83.805122 
	C311.873016,83.782654 312.267670,83.788582 312.660858,84.041191 
z"/>
<path fill="#161616" opacity="1.000000" stroke="none" 
	d="
M226.112350,390.697571 
	C225.530838,390.730896 225.119537,390.600067 224.708221,390.469208 
	C224.821579,390.359558 224.958420,390.140442 225.044342,390.158844 
	C225.464508,390.248962 225.871140,390.402374 226.112350,390.697571 
z"/>
<path fill="#161616" opacity="1.000000" stroke="none" 
	d="
M229.366562,396.794281 
	C229.057373,397.152527 228.803879,397.291260 228.550385,397.429962 
	C228.473267,397.165802 228.396133,396.901642 228.319016,396.637482 
	C228.686768,396.616577 229.054520,396.595673 229.366562,396.794281 
z"/>
<path fill="#0B0B0B" opacity="1.000000" stroke="none" 
	d="
M137.141022,361.682098 
	C137.023285,361.364441 137.115372,361.017303 137.207443,360.670135 
	C137.255234,360.997620 137.303040,361.325104 137.141022,361.682098 
z"/>
<path fill="#F2F2F2" opacity="1.000000" stroke="none" 
	d="
M338.068207,364.018921 
	C337.418793,363.571442 336.769379,363.123962 336.121063,362.362854 
	C336.553650,362.028442 336.985138,362.007660 337.715393,361.957520 
	C338.014160,361.928131 337.933105,361.946320 337.968323,362.291138 
	C338.025116,363.096954 338.046661,363.557953 338.068207,364.018921 
z"/>
<path fill="#0B0B0B" opacity="1.000000" stroke="none" 
	d="
M132.495087,367.518433 
	C132.106934,367.542267 131.871979,367.415527 131.637024,367.288788 
	C131.853592,367.076782 132.070145,366.864777 132.286697,366.652771 
	C132.407227,366.891144 132.527756,367.129517 132.495087,367.518433 
z"/>
<path fill="#0A0A0A" opacity="1.000000" stroke="none" 
	d="
M117.147415,138.872650 
	C117.037201,139.179565 116.779594,139.341278 116.521988,139.503006 
	C116.681335,139.244507 116.840675,138.985992 117.147415,138.872650 
z"/>
<path fill="#F2F2F2" opacity="1.000000" stroke="none" 
	d="
M204.322159,78.308655 
	C204.967133,77.809822 205.427231,77.625923 205.887344,77.442024 
	C205.920502,77.726372 206.017212,78.248703 205.977280,78.259377 
	C205.374527,78.420341 204.753799,78.514091 204.322159,78.308655 
z"/>
<path fill="#0A0A0A" opacity="1.000000" stroke="none" 
	d="
M169.899200,80.640076 
	C170.165085,80.367126 170.558777,80.255264 170.960266,80.198685 
	C171.027603,80.189194 171.128693,80.419205 171.214172,80.538544 
	C170.819321,80.632278 170.424484,80.726006 169.899200,80.640076 
z"/>
<path fill="#0A0A0A" opacity="1.000000" stroke="none" 
	d="
M186.882538,89.708748 
	C186.591446,89.789566 186.337646,89.651649 186.083847,89.513733 
	C186.217911,89.271049 186.351974,89.028366 186.486038,88.785683 
	C186.630646,89.020454 186.775238,89.255234 186.882538,89.708748 
z"/>
<path fill="#121212" opacity="1.000000" stroke="none" 
	d="
M104.662292,326.617371 
	C104.780495,326.350739 105.010330,326.235046 105.253883,326.179230 
	C105.300804,326.168457 105.401466,326.392151 105.477341,326.507690 
	C105.244453,326.601532 105.011574,326.695374 104.662292,326.617371 
z"/>
<path fill="#101010" opacity="1.000000" stroke="none" 
	d="
M142.678864,363.352417 
	C142.930557,363.364471 143.068466,363.499756 143.206360,363.635010 
	C142.992599,363.581879 142.778824,363.528748 142.678864,363.352417 
z"/>
<path fill="#0A0A0A" opacity="1.000000" stroke="none" 
	d="
M174.360168,93.245171 
	C174.374268,93.007278 174.504669,92.877296 174.635071,92.747307 
	C174.582214,92.949234 174.529343,93.151161 174.360168,93.245171 
z"/>
<path fill="#0C0C0C" opacity="1.000000" stroke="none" 
	d="
M147.376770,103.674530 
	C147.566299,103.819649 147.597351,104.075157 147.628387,104.330666 
	C147.491684,104.148750 147.354996,103.966835 147.376770,103.674530 
z"/>
<path fill="#090909" opacity="1.000000" stroke="none" 
	d="
M134.634949,103.763824 
	C134.620438,103.993103 134.495300,104.118019 134.370178,104.242928 
	C134.421570,104.048439 134.472961,103.853943 134.634949,103.763824 
z"/>
<path fill="#0D0D0D" opacity="1.000000" stroke="none" 
	d="
M310.987457,98.206421 
	C311.114014,98.397377 311.053009,98.589851 310.992004,98.782318 
	C310.927948,98.590851 310.863922,98.399391 310.987457,98.206421 
z"/>
<path fill="#090909" opacity="1.000000" stroke="none" 
	d="
M146.608337,109.268616 
	C146.438324,109.134552 146.413315,108.904541 146.388290,108.674530 
	C146.509964,108.840576 146.631638,109.006630 146.608337,109.268616 
z"/>
<path fill="#101010" opacity="1.000000" stroke="none" 
	d="
M135.647064,372.739105 
	C135.632294,372.991913 135.496155,373.130035 135.360016,373.268158 
	C135.415253,373.053589 135.470474,372.838989 135.647064,372.739105 
z"/>
<path fill="#101010" opacity="1.000000" stroke="none" 
	d="
M142.819199,372.850647 
	C143.304810,372.665527 143.790405,372.480377 144.276016,372.295227 
	C144.080215,372.580872 143.884415,372.866486 143.338776,373.079346 
	C142.988922,373.006531 142.819199,372.850647 142.819199,372.850647 
z"/>
<path fill="#121212" opacity="1.000000" stroke="none" 
	d="
M85.934250,334.047546 
	C85.746323,333.601349 85.641685,333.086395 85.537048,332.571411 
	C85.715187,332.831207 85.893326,333.090973 86.126442,333.594360 
	C86.181419,333.837982 86.017540,333.978790 85.934250,334.047546 
z"/>
<path fill="#D4D4D4" opacity="1.000000" stroke="none" 
	d="
M337.921265,360.311157 
	C338.348083,360.363312 338.776398,360.754700 338.816864,361.604980 
	C338.263702,362.024719 338.098419,361.985535 337.933105,361.946320 
	C337.933105,361.946320 338.014160,361.928131 338.039612,361.959900 
	C338.017639,361.544586 337.970154,361.097473 337.921265,360.311157 
z"/>
<path fill="#090909" opacity="1.000000" stroke="none" 
	d="
M125.632584,126.314011 
	C125.445793,126.172104 125.414902,125.926537 125.384010,125.680969 
	C125.518837,125.857430 125.653664,126.033890 125.632584,126.314011 
z"/>
<path fill="#121212" opacity="1.000000" stroke="none" 
	d="
M107.293396,324.686096 
	C107.001846,324.672150 106.841942,324.515198 106.682037,324.358215 
	C106.929710,324.419830 107.177376,324.481476 107.293396,324.686096 
z"/>
<path fill="#0A0A0A" opacity="1.000000" stroke="none" 
	d="
M166.236847,81.949188 
	C166.409912,81.836334 166.582703,81.891663 166.755478,81.946991 
	C166.582504,82.003784 166.409546,82.060577 166.236847,81.949188 
z"/>
<path fill="#D4D4D4" opacity="1.000000" stroke="none" 
	d="
M78.227875,293.441101 
	C78.014229,293.369049 77.884048,293.391571 77.753868,293.414093 
	C77.939682,293.454651 78.125504,293.495178 78.227875,293.441101 
z"/>
<path fill="#0A0A0A" opacity="1.000000" stroke="none" 
	d="
M91.408417,147.738098 
	C91.564316,147.860825 91.586884,148.069412 91.609451,148.278000 
	C91.498001,148.126648 91.386543,147.975296 91.408417,147.738098 
z"/>
<path fill="#090909" opacity="1.000000" stroke="none" 
	d="
M389.042938,303.974365 
	C389.213654,304.404724 389.326416,304.880951 389.439178,305.357147 
	C389.279968,305.101562 389.120758,304.845978 388.917908,304.354248 
	C388.874207,304.118103 388.984985,304.020233 389.042938,303.974365 
z"/>
<path fill="#0C0C0C" opacity="1.000000" stroke="none" 
	d="
M168.203857,94.944412 
	C168.040024,94.872978 168.030228,94.690498 168.023727,94.233521 
	C168.137314,94.250465 168.247589,94.541916 168.203857,94.944412 
z"/>
<path fill="#0A0A0A" opacity="1.000000" stroke="none" 
	d="
M182.449814,75.426453 
	C182.529068,75.373436 182.557434,75.583939 182.557434,75.583939 
	C182.557434,75.583939 182.370560,75.479477 182.449814,75.426453 
z"/>
<path fill="#111111" opacity="1.000000" stroke="none" 
	d="
M340.476593,365.135803 
	C340.210785,364.978912 340.130371,364.800049 340.104370,364.254242 
	C340.158722,363.887268 340.443817,363.741852 340.443817,363.741852 
	C340.556244,363.927216 340.668671,364.112579 340.880676,364.608246 
	C340.980194,364.918549 340.661957,365.113770 340.476593,365.135803 
z"/>
<path fill="#0A0A0A" opacity="1.000000" stroke="none" 
	d="
M171.102066,89.880035 
	C171.205917,90.073814 171.309784,90.267601 171.413635,90.461380 
	C171.298355,90.429573 171.183075,90.397766 171.036240,90.177155 
	C171.004684,89.988365 171.102066,89.880035 171.102066,89.880035 
z"/>
<path fill="#0A0A0A" opacity="1.000000" stroke="none" 
	d="
M170.070648,88.943176 
	C170.445602,88.993065 170.698624,89.180885 170.995880,89.666092 
	C171.102066,89.880035 171.004684,89.988365 170.949677,90.038223 
	C170.581940,89.984444 170.326401,89.801079 170.015198,89.328094 
	C169.902298,89.118210 170.010681,88.997681 170.070648,88.943176 
z"/>
<path fill="#101010" opacity="1.000000" stroke="none" 
	d="
M143.069824,373.088623 
	C142.941513,373.138000 142.732315,373.105347 142.671158,372.961670 
	C142.819199,372.850647 142.988922,373.006531 143.069824,373.088623 
z"/>
<path fill="#0A0A0A" opacity="1.000000" stroke="none" 
	d="
M172.570023,82.444839 
	C172.619858,82.520309 172.420609,82.546753 172.420609,82.546753 
	C172.420609,82.546753 172.520187,82.369362 172.570023,82.444839 
z"/>
<path fill="#0D0D0D" opacity="1.000000" stroke="none" 
	d="
M304.450012,96.444916 
	C304.527710,96.391212 304.549591,96.605652 304.549591,96.605652 
	C304.549591,96.605652 304.372314,96.498611 304.450012,96.444916 
z"/>
<path fill="#090909" opacity="1.000000" stroke="none" 
	d="
M127.462143,98.443840 
	C127.523880,98.405624 127.400414,98.482056 127.462143,98.443840 
z"/>
<path fill="#D4D4D4" opacity="1.000000" stroke="none" 
	d="
M337.026184,359.336975 
	C337.458649,359.179413 337.896515,359.307922 338.174561,359.759277 
	C337.687042,359.929108 337.359314,359.776062 337.026184,359.336975 
z"/>
<path fill="#0B0B0B" opacity="1.000000" stroke="none" 
	d="
M133.146255,357.112030 
	C132.957214,357.089386 132.768173,357.066742 132.794373,357.016907 
	C133.009598,356.989716 133.146255,357.112030 133.146255,357.112030 
z"/>
<path fill="#0B0B0B" opacity="1.000000" stroke="none" 
	d="
M132.948166,356.921631 
	C133.062332,356.876862 133.237930,356.900238 133.279892,357.017822 
	C133.146255,357.112030 133.009598,356.989716 132.948166,356.921631 
z"/>
<path fill="#0B0B0B" opacity="1.000000" stroke="none" 
	d="
M135.538376,354.556885 
	C135.476761,354.595154 135.599991,354.518585 135.538376,354.556885 
z"/>
<path fill="#121212" opacity="1.000000" stroke="none" 
	d="
M161.862122,103.082687 
	C162.066971,103.230049 162.042557,103.414665 161.961563,103.874275 
	C161.714188,103.923401 161.506805,103.708038 161.350006,103.460617 
	C161.325684,103.422234 161.532776,103.237167 161.862122,103.082687 
z"/>
<path fill="#D4D4D4" opacity="1.000000" stroke="none" 
	d="
M359.493408,342.494873 
	C359.512360,342.496124 359.474457,342.493652 359.493408,342.494873 
z"/>
<path fill="#0A0A0A" opacity="1.000000" stroke="none" 
	d="
M163.041016,108.058044 
	C162.927139,108.100433 162.767181,108.091850 162.750092,107.999191 
	C162.892929,107.915100 162.994965,108.007088 163.041016,108.058044 
z"/>
<path fill="#090909" opacity="1.000000" stroke="none" 
	d="
M146.453491,112.529488 
	C146.423126,112.477295 146.483856,112.581680 146.453491,112.529488 
z"/>
<path fill="#121212" opacity="1.000000" stroke="none" 
	d="
M87.542908,325.579315 
	C87.475456,325.625732 87.610367,325.532898 87.542908,325.579315 
z"/>
<path fill="#0A0A0A" opacity="1.000000" stroke="none" 
	d="
M104.560089,132.462067 
	C104.599396,132.524399 104.520782,132.399719 104.560089,132.462067 
z"/>
<path fill="#0A0A0A" opacity="1.000000" stroke="none" 
	d="
M107.445244,132.534042 
	C107.410217,132.476822 107.480270,132.591263 107.445244,132.534042 
z"/>
<path fill="#0A0A0A" opacity="1.000000" stroke="none" 
	d="
M100.960701,133.943939 
	C101.067986,133.901962 101.217339,133.907135 101.231743,133.993942 
	C101.096786,134.075577 101.002777,133.991089 100.960701,133.943939 
z"/>
<path fill="#0A0A0A" opacity="1.000000" stroke="none" 
	d="
M103.459366,138.440292 
	C103.524071,138.399475 103.394661,138.481110 103.459366,138.440292 
z"/>
<path fill="#0A0A0A" opacity="1.000000" stroke="none" 
	d="
M92.565613,141.454407 
	C92.611763,141.525284 92.424072,141.547058 92.424072,141.547058 
	C92.424072,141.547058 92.519463,141.383514 92.565613,141.454407 
z"/>
<path fill="#000000" opacity="1.000000" stroke="none" 
	d="
M87.480591,174.598358 
	C87.422218,170.265427 82.901154,165.106995 89.667397,162.299561 
	C90.076370,162.129868 90.617035,162.277557 91.696373,162.277557 
	C91.246223,163.643753 90.972359,164.816437 90.482513,165.890656 
	C89.457207,168.139069 86.949913,170.191574 89.774231,172.821716 
	C89.114838,173.468063 88.455429,174.114426 87.480591,174.598358 
z"/>
<path fill="#000000" opacity="1.000000" stroke="none" 
	d="
M95.002663,168.075531 
	C94.881729,168.477448 94.640953,168.916122 94.252716,168.996979 
	C94.292641,168.366669 94.551834,168.191040 95.002663,168.075531 
z"/>
<path fill="#000000" opacity="1.000000" stroke="none" 
	d="
M340.525940,363.466370 
	C340.443817,363.741852 340.158722,363.887268 340.022217,363.971802 
	C339.482330,364.034363 339.078979,364.012390 338.371918,364.004669 
	C338.046661,363.557953 338.025116,363.096954 337.968323,362.291138 
	C338.098419,361.985535 338.263702,362.024719 338.679749,362.018372 
	C339.489685,362.378845 340.048889,362.784882 340.525940,363.466370 
z"/>
</svg>