<?xml version="1.0" standalone="no"?>
<!DOCTYPE svg PUBLIC "-//W3C//DTD SVG 20010904//EN"
 "http://www.w3.org/TR/2001/REC-SVG-20010904/DTD/svg10.dtd">
<svg version="1.0" xmlns="http://www.w3.org/2000/svg"
 width="500.000000pt" height="500.000000pt" viewBox="0 0 500.000000 500.000000"
 preserveAspectRatio="xMidYMid meet">
<metadata>
Created by potrace 1.16, written by Peter Selinger 2001-2019
</metadata>
<g transform="translate(0.000000,500.000000) scale(0.100000,-0.100000)"
fill="#000000" stroke="none">
<path d="M2178 4413 c-14 -3 -18 -15 -17 -51 1 -74 23 -243 32 -242 4 0 18 0
32 0 21 0 25 4 21 23 -3 12 -10 79 -17 150 -7 81 -16 127 -23 126 -6 -1 -19
-3 -28 -6z"/>
<path d="M2309 4311 c-23 -24 -29 -38 -29 -74 0 -63 7 -75 53 -99 123 -62 240
73 148 171 -26 28 -35 31 -86 31 -49 0 -60 -4 -86 -29z"/>
<path d="M2561 4278 c-13 -60 -41 -220 -41 -229 0 -4 12 -10 27 -13 30 -8 43
5 43 45 0 36 8 41 36 22 30 -19 97 -13 125 13 10 9 24 34 30 54 24 80 -32 148
-114 138 -24 -2 -38 1 -41 9 -3 7 -16 13 -30 13 -22 0 -26 -6 -35 -52z"/>
<path d="M1963 4290 c-40 -24 -53 -48 -53 -99 0 -31 7 -46 32 -71 30 -30 35
-32 90 -28 44 3 64 10 81 27 21 22 21 23 3 36 -16 12 -22 12 -40 0 -26 -19
-70 -19 -86 0 -10 12 -7 15 17 21 120 27 128 31 125 50 -13 74 -99 107 -169
64z"/>
<path d="M1828 4263 c-14 -3 -18 -15 -18 -46 0 -23 -3 -59 -7 -80 l-6 -38 -52
56 c-48 51 -54 55 -79 45 -35 -13 -28 -24 62 -114 65 -64 72 -68 98 -59 l29
10 5 116 c3 75 1 117 -5 116 -5 -1 -18 -3 -27 -6z"/>
<path d="M2863 4235 c-101 -44 -71 -194 42 -211 57 -8 75 -1 68 25 -4 16 -13
21 -37 21 -36 0 -76 24 -76 46 0 18 1 18 83 -11 77 -28 87 -25 87 27 0 43 -19
74 -60 97 -44 24 -63 26 -107 6z"/>
<path d="M3054 4075 c-41 -81 -47 -97 -34 -105 30 -19 47 -10 70 41 27 58 49
73 90 64 23 -5 29 -2 35 16 9 26 -10 41 -43 36 -16 -3 -22 0 -18 8 3 10 -31
35 -48 35 -2 0 -25 -43 -52 -95z"/>
<path d="M1515 4122 c-46 -29 -58 -49 -58 -99 0 -40 4 -50 36 -80 40 -36 69
-41 121 -19 30 13 76 59 76 77 0 21 -40 18 -64 -6 -16 -16 -36 -25 -56 -25
-46 0 -34 18 38 58 34 19 62 40 62 47 0 7 -14 25 -31 39 -36 31 -81 34 -124 8z"/>
<path d="M1255 4021 c-22 -11 -62 -40 -90 -64 -47 -42 -49 -46 -34 -63 9 -11
48 -58 88 -106 40 -49 76 -88 81 -88 16 0 131 112 147 143 40 79 -35 195 -127
196 -14 0 -43 -8 -65 -18z m112 -73 c44 -48 37 -88 -24 -145 -32 -30 -38 -29
-62 10 -11 18 -30 42 -42 53 -42 38 -42 51 -2 79 48 32 102 34 130 3z"/>
<path d="M3628 3777 c-29 -23 -77 -60 -105 -81 -29 -21 -53 -41 -53 -44 0 -4
7 -16 16 -27 10 -14 18 -17 28 -10 7 6 26 19 42 29 16 11 39 29 52 40 28 24
28 23 -3 -59 -33 -87 -28 -93 67 -84 40 4 74 6 75 5 1 -1 -27 -24 -62 -51 -63
-47 -64 -49 -48 -69 10 -12 19 -23 20 -25 1 -2 37 23 79 55 42 33 91 70 110
84 37 28 41 41 19 60 -14 12 -68 10 -177 -6 -37 -6 -37 -5 -28 23 4 15 20 57
35 92 21 52 25 69 16 88 -6 13 -15 23 -20 23 -6 0 -34 -19 -63 -43z"/>
<path d="M998 3673 c-27 -17 -48 -52 -48 -79 0 -12 -4 -13 -22 -3 -13 6 -32
20 -44 31 -21 19 -21 19 -38 -6 -9 -14 -16 -27 -16 -29 0 -2 36 -31 81 -63 44
-32 97 -71 116 -86 20 -16 39 -28 44 -28 7 0 22 34 24 52 0 3 12 15 26 27 66
51 61 139 -10 179 -46 26 -76 27 -113 5z"/>
<path d="M3805 3425 c-60 -30 -114 -56 -120 -58 -5 -2 12 -49 39 -105 48 -97
50 -100 71 -86 l22 14 -32 68 -33 67 22 12 c35 20 43 15 66 -42 22 -55 32 -63
60 -45 12 8 11 17 -14 67 -26 54 -27 58 -10 70 30 22 39 15 69 -51 22 -51 32
-62 47 -58 10 2 21 8 23 13 7 11 -78 189 -90 188 -5 0 -59 -25 -120 -54z"/>
<path d="M883 3453 c-12 -2 -36 -20 -53 -39 -51 -59 -37 -145 31 -180 46 -23
76 -17 120 24 34 31 42 46 46 86 6 46 5 48 -18 44 -18 -2 -25 -12 -32 -41 -9
-37 -50 -77 -64 -63 -4 4 7 36 25 72 18 35 32 68 32 73 0 7 -60 35 -64 30 -1
-1 -11 -4 -23 -6z"/>
<path d="M665 3238 c-6 -23 -3 -34 9 -42 8 -6 48 -31 87 -56 l71 -45 -102 -7
c-57 -5 -104 -9 -105 -10 -1 -2 -5 -15 -9 -31 -6 -25 -1 -30 74 -78 44 -28 80
-55 80 -60 0 -5 -37 -9 -82 -9 -93 0 -102 -4 -117 -43 -12 -32 -18 -31 168
-18 119 9 131 14 131 59 0 17 -18 34 -82 75 l-83 52 99 8 c55 4 101 9 103 10
1 2 6 18 9 35 6 30 4 33 -71 79 -43 26 -99 62 -126 80 l-48 32 -6 -31z"/>
<path d="M3935 3180 c-49 -16 -99 -29 -110 -30 -33 -1 -44 -13 -38 -43 5 -27
7 -28 48 -21 40 5 43 4 49 -21 5 -20 0 -35 -23 -64 -25 -31 -29 -43 -22 -67 9
-35 15 -34 50 9 24 31 29 33 46 21 38 -28 134 -8 149 31 19 50 -15 216 -44
214 -8 0 -55 -13 -105 -29z"/>
<path d="M3963 2886 c-56 -6 -105 -14 -108 -18 -4 -4 -5 -18 -1 -32 6 -25 7
-25 89 -19 l82 6 -77 -79 c-89 -90 -101 -124 -45 -124 42 0 251 21 255 25 9 9
-11 63 -21 60 -7 -2 -45 -6 -84 -9 l-73 -6 80 76 c64 61 80 83 80 105 0 34 -3
34 -177 15z"/>
<path d="M783 2508 c-57 -57 -48 -57 -125 2 l-28 22 0 -30 c0 -31 27 -67 74
-97 25 -17 26 -19 10 -26 -11 -3 -47 -10 -81 -14 -61 -7 -63 -8 -63 -36 0 -35
3 -36 177 -12 124 16 124 16 121 42 -2 21 -9 27 -35 29 -17 2 -37 10 -43 18
-10 11 -6 20 24 47 27 25 36 42 36 65 0 17 -4 33 -8 36 -5 3 -31 -18 -59 -46z"/>
<path d="M3836 2293 c-30 -127 -16 -187 54 -223 64 -33 128 -22 174 29 15 16
71 191 63 197 -6 5 -246 64 -259 64 -11 0 -20 -21 -32 -67z m157 -29 c75 -19
76 -20 42 -100 -26 -62 -116 -63 -150 0 -16 30 -17 39 -5 80 9 35 17 45 29 42
9 -2 47 -12 84 -22z"/>
<path d="M817 2278 c-4 -15 0 -28 14 -41 51 -47 -10 -130 -67 -92 -32 21 -40
43 -25 67 10 17 9 23 -6 40 -17 19 -18 19 -35 -2 -44 -55 3 -162 77 -176 111
-20 177 116 95 198 -34 34 -46 35 -53 6z"/>
<path d="M860 2051 c-83 -41 -98 -62 -86 -125 4 -20 20 -51 36 -69 27 -30 30
-31 46 -15 17 17 17 19 -3 40 -27 30 -35 59 -22 78 9 13 12 13 22 -4 42 -65
54 -80 74 -87 16 -6 29 -2 47 12 33 26 35 75 4 114 -12 15 -23 39 -24 53 -2
14 -7 28 -11 32 -4 4 -42 -9 -83 -29z"/>
<path d="M3755 2017 c-33 -33 -53 -92 -42 -121 9 -23 47 -8 47 19 0 27 36 75
56 75 18 0 18 0 -10 -62 -39 -88 -39 -88 -8 -99 65 -25 142 33 142 108 0 70
-44 113 -116 113 -28 0 -44 -8 -69 -33z"/>
<path d="M1003 1870 c-8 -12 -9 -21 -3 -25 23 -14 8 -44 -32 -68 -43 -25 -43
-26 -58 -6 -27 35 -64 6 -40 -31 7 -11 4 -19 -11 -31 -18 -14 -20 -19 -9 -38
9 -18 17 -21 40 -16 16 3 31 2 35 -4 11 -19 47 7 40 28 -4 14 5 25 40 45 69
41 83 83 44 137 -24 34 -30 35 -46 9z"/>
<path d="M3622 1785 l-21 -26 66 -97 c36 -53 66 -98 68 -100 1 -1 10 9 19 23
16 24 15 26 -25 85 -23 34 -39 63 -37 65 2 3 37 -1 76 -9 l73 -14 14 29 c17
33 24 29 -100 49 -38 6 -80 13 -91 16 -15 4 -28 -2 -42 -21z"/>
<path d="M1046 1697 c-32 -32 -32 -45 -4 -124 18 -49 20 -65 10 -75 -17 -17
-64 19 -77 60 -9 32 -27 40 -53 24 -23 -15 24 -100 74 -133 43 -28 78 -24 108
12 14 17 26 34 26 39 0 4 -11 37 -24 72 -26 70 -22 95 13 83 22 -7 61 -71 61
-100 0 -16 14 -18 41 -7 15 6 15 11 2 54 -19 58 -68 107 -116 115 -29 4 -40 1
-61 -20z"/>
<path d="M3520 1632 c-37 -18 -80 -74 -80 -103 0 -33 43 -23 60 14 14 31 62
58 76 44 4 -3 -17 -33 -45 -66 -29 -33 -50 -65 -46 -71 13 -22 67 -41 96 -35
39 9 87 58 95 99 8 43 -16 90 -59 116 -39 24 -53 25 -97 2z"/>
<path d="M3361 1481 l-25 -19 98 -111 c54 -61 101 -111 105 -111 4 0 16 9 26
20 18 20 18 21 -7 48 -13 15 -43 47 -65 72 -22 25 -55 62 -74 82 l-34 38 -24
-19z"/>
<path d="M1257 1367 c-89 -105 -94 -113 -79 -130 9 -10 21 -16 27 -15 20 5
197 217 190 228 -3 5 -14 14 -25 20 -15 8 -32 -7 -113 -103z"/>
<path d="M1387 1338 c-128 -175 -124 -168 -102 -184 10 -8 24 -13 30 -11 16 6
175 228 169 238 -3 5 -14 14 -24 19 -17 9 -26 1 -73 -62z"/>
<path d="M3245 1390 c-34 -14 -76 -65 -81 -101 -11 -73 71 -142 141 -119 52
17 95 72 95 121 0 33 -6 47 -34 75 -35 35 -76 43 -121 24z"/>
<path d="M3036 1347 c-16 -11 -16 -15 -1 -49 20 -48 20 -48 -14 -48 -37 0 -77
-32 -91 -74 -14 -43 4 -92 46 -125 38 -30 109 -25 137 11 11 12 26 22 33 20 8
-2 23 2 33 8 20 10 19 13 -18 88 -21 42 -49 101 -61 130 -25 54 -35 61 -64 39z"/>
<path d="M1502 1308 c-45 -77 -84 -149 -81 -152 10 -9 51 -27 53 -24 2 2 18
29 36 60 37 62 58 74 89 51 28 -19 26 -38 -10 -103 l-30 -54 23 -18 c22 -17
24 -16 40 5 9 12 29 48 44 80 l28 58 -19 37 c-16 30 -29 39 -65 49 -25 6 -40
12 -35 13 13 1 -26 30 -41 30 -7 0 -21 -15 -32 -32z"/>
<path d="M1854 1135 c-9 -25 -20 -45 -24 -45 -4 0 -32 9 -62 19 l-56 19 -6
-21 c-7 -27 -3 -30 57 -52 46 -17 49 -20 43 -48 -4 -17 -9 -33 -12 -36 -3 -3
-35 5 -71 18 -54 20 -67 21 -74 10 -17 -27 -8 -35 76 -67 93 -35 114 -38 120
-19 2 6 22 63 45 126 22 62 40 115 38 116 -7 5 -47 25 -52 25 -2 0 -12 -20
-22 -45z"/>
<path d="M2760 1159 c-19 -6 -42 -20 -52 -32 -15 -20 -15 -22 3 -35 18 -12 23
-12 39 3 20 19 76 23 91 8 13 -13 10 -15 -70 -38 -34 -10 -65 -24 -68 -31 -2
-7 3 -26 11 -42 47 -90 206 -42 206 62 0 82 -73 130 -160 105z"/>
<path d="M2607 1122 c-26 -3 -27 -5 -21 -45 3 -23 8 -48 10 -55 8 -28 -8 -61
-36 -70 -23 -8 -27 -15 -23 -36 5 -22 9 -25 27 -20 11 4 26 11 33 16 7 5 13 5
17 0 7 -12 56 -3 56 11 0 29 -24 193 -29 197 -3 3 -18 4 -34 2z"/>
</g>
</svg>
